
<svg version="1.0" xmlns="http://www.w3.org/2000/svg"
 width="128.000000pt" height="128.000000pt" viewBox="0 0 128.000000 128.000000"
 preserveAspectRatio="xMidYMid meet">
<metadata>

</metadata>
<g transform="translate(0.000000,128.000000) scale(0.100000,-0.100000)"
fill="#000000" stroke="none">
<path d="M564 1057 c-178 -68 -284 -223 -284 -416 0 -201 112 -359 300 -423
81 -27 229 -22 312 11 73 28 119 70 111 100 -11 41 -39 45 -96 12 -29 -16 -79
-37 -111 -46 -153 -44 -322 38 -399 194 -29 59 -32 75 -32 151 0 71 5 95 27
142 48 103 144 183 246 206 71 16 176 -1 254 -42 74 -39 100 -38 111 5 8 30
-38 72 -111 100 -86 35 -245 37 -328 6z"/>
</g>
</svg>
